<svg width="170" height="170" viewBox="0 0 170 170" fill="none" xmlns="http://www.w3.org/2000/svg">
<path d="M94.9804 17.8008C88.5799 15.2057 81.4202 15.2057 75.0196 17.8008L59.5071 24.0908L127.45 50.5116L151.35 41.282C150.37 40.469 149.271 39.812 148.091 39.3341L94.9804 17.8008ZM155.833 50.9366L90.3125 76.2525V92.5441C94.614 87.9241 99.8219 84.2407 105.611 81.724C111.4 79.2073 117.646 77.9113 123.958 77.917C136.333 77.917 147.56 82.7975 155.833 90.7379V50.9366ZM79.6875 76.2525V111.28C78.5093 115.405 77.9132 119.675 77.9167 123.966C77.9167 128.365 78.5329 132.622 79.6875 136.645V153.624C78.0916 153.298 76.529 152.826 75.0196 152.214L21.9088 130.681C19.6211 129.754 17.6621 128.166 16.2828 126.119C14.9035 124.072 14.1667 121.66 14.1667 119.192V50.9437L79.6875 76.2525ZM18.6504 41.282L85 66.9166L112.745 56.1925L45.1492 29.9133L21.9088 39.3341C20.7046 39.8229 19.6138 40.4816 18.6504 41.282ZM123.958 162.917C134.291 162.917 144.2 158.813 151.506 151.506C158.812 144.2 162.917 134.291 162.917 123.959C162.917 113.626 158.812 103.717 151.506 96.411C144.2 89.1049 134.291 85.0004 123.958 85.0004C113.626 85.0004 103.717 89.1049 96.4107 96.411C89.1045 103.717 85 113.626 85 123.959C85 134.291 89.1045 144.2 96.4107 151.506C103.717 158.813 113.626 162.917 123.958 162.917ZM142.701 107.285C143.365 106.62 144.266 106.246 145.206 106.245C146.146 106.244 147.047 106.617 147.712 107.281C148.377 107.945 148.751 108.846 148.752 109.786C148.753 110.726 148.38 111.627 147.716 112.292L119.383 140.626C119.054 140.956 118.663 141.217 118.232 141.396C117.802 141.574 117.341 141.666 116.875 141.666C116.409 141.666 115.948 141.574 115.518 141.396C115.087 141.217 114.697 140.956 114.368 140.626L100.201 126.459C99.872 126.13 99.6113 125.739 99.4335 125.309C99.2557 124.879 99.1644 124.418 99.1647 123.953C99.165 123.487 99.257 123.027 99.4354 122.597C99.6138 122.167 99.8751 121.777 100.204 121.448C100.534 121.119 100.925 120.858 101.355 120.68C101.785 120.503 102.246 120.411 102.711 120.412C103.176 120.412 103.637 120.504 104.067 120.682C104.497 120.861 104.887 121.122 105.216 121.451L116.875 133.117L142.701 107.285Z" fill="#FF801C"/>
</svg>
