<svg width="170" height="170" viewBox="0 0 170 170" fill="none" xmlns="http://www.w3.org/2000/svg">
<path d="M0 42.5C0 36.8641 2.23883 31.4591 6.22398 27.474C10.2091 23.4888 15.6141 21.25 21.25 21.25H148.75C154.386 21.25 159.791 23.4888 163.776 27.474C167.761 31.4591 170 36.8641 170 42.5V53.125H0V42.5ZM0 74.375V127.5C0 133.136 2.23883 138.541 6.22398 142.526C10.2091 146.511 15.6141 148.75 21.25 148.75H148.75C154.386 148.75 159.791 146.511 163.776 142.526C167.761 138.541 170 133.136 170 127.5V74.375H0ZM31.875 95.625H42.5C45.3179 95.625 48.0204 96.7444 50.013 98.737C52.0056 100.73 53.125 103.432 53.125 106.25V116.875C53.125 119.693 52.0056 122.395 50.013 124.388C48.0204 126.381 45.3179 127.5 42.5 127.5H31.875C29.0571 127.5 26.3546 126.381 24.362 124.388C22.3694 122.395 21.25 119.693 21.25 116.875V106.25C21.25 103.432 22.3694 100.73 24.362 98.737C26.3546 96.7444 29.0571 95.625 31.875 95.625Z" fill="#FF801C"/>
</svg>
