<svg width="43" height="42" viewBox="0 0 43 42" fill="none" xmlns="http://www.w3.org/2000/svg">
<g opacity="0.6">
<path d="M19.6652 18.9984C20.1959 18.4676 20.9159 18.1694 21.6665 18.1694C22.4172 18.1694 23.1371 18.4676 23.6679 18.9984C24.1987 19.5292 24.4969 20.2491 24.4969 20.9998C24.4969 21.7505 24.1987 22.4704 23.6679 23.0012C23.1371 23.532 22.4172 23.8302 21.6665 23.8302C20.9159 23.8302 20.1959 23.532 19.6652 23.0012C19.1344 22.4704 18.8362 21.7505 18.8362 20.9998C18.8362 20.2491 19.1344 19.5292 19.6652 18.9984Z" fill="#FF801C"/>
<path fill-rule="evenodd" clip-rule="evenodd" d="M15.1136 14.4469C15.7506 13.8099 16.6145 13.4521 17.5153 13.4521H25.8178C27.6952 13.4521 29.2142 14.9711 29.2142 16.8486V25.151C29.2142 26.0518 28.8564 26.9157 28.2194 27.5527C27.5825 28.1896 26.7186 28.5475 25.8178 28.5475H17.5153C15.6378 28.5475 14.1188 27.0285 14.1188 25.151V16.8486C14.1188 15.9478 14.4767 15.0839 15.1136 14.4469ZM27.4536 15.2127C27.2324 14.9915 26.9325 14.8673 26.6197 14.8673C26.3069 14.8673 26.007 14.9915 25.7858 15.2127C25.5646 15.4339 25.4404 15.7338 25.4404 16.0466C25.4404 16.3594 25.5646 16.6594 25.7858 16.8805C26.007 17.1017 26.3069 17.2259 26.6197 17.2259C26.9325 17.2259 27.2324 17.1017 27.4536 16.8805C27.6748 16.6594 27.799 16.3594 27.799 16.0466C27.799 15.7338 27.6748 15.4339 27.4536 15.2127ZM25.0022 17.6641C24.1175 16.7795 22.9176 16.2825 21.6665 16.2825C20.4154 16.2825 19.2156 16.7795 18.3309 17.6641C17.4462 18.5488 16.9492 19.7487 16.9492 20.9998C16.9492 22.2509 17.4462 23.4508 18.3309 24.3354C19.2156 25.2201 20.4154 25.7171 21.6665 25.7171C22.9176 25.7171 24.1175 25.2201 25.0022 24.3354C25.8868 23.4508 26.3838 22.2509 26.3838 20.9998C26.3838 19.7487 25.8868 18.5488 25.0022 17.6641Z" fill="#FF801C"/>
<path fill-rule="evenodd" clip-rule="evenodd" d="M21.6666 38.4998C31.3316 38.4998 39.1665 30.6648 39.1665 20.9999C39.1665 11.335 31.3316 3.5 21.6666 3.5C12.0017 3.5 4.16675 11.335 4.16675 20.9999C4.16675 30.6648 12.0017 38.4998 21.6666 38.4998ZM25.6291 11.5652H17.704C16.2527 11.5652 14.8609 12.1417 13.8347 13.1679C12.8084 14.1941 12.2319 15.586 12.2319 17.0373V24.9623C12.2319 27.9814 14.6849 30.4344 17.704 30.4344H25.6291C27.0804 30.4344 28.4722 29.8579 29.4984 28.8317C30.5246 27.8054 31.1011 26.4136 31.1011 24.9623V17.0373C31.1011 14.0182 28.6481 11.5652 25.6291 11.5652Z" fill="#FF801C"/>
</g>
</svg>
