<svg width="170" height="170" viewBox="0 0 170 170" fill="none" xmlns="http://www.w3.org/2000/svg">
<path d="M85 17C75.9826 17 67.3346 20.5821 60.9584 26.9584C54.5821 33.3346 51 41.9826 51 51C51 60.0174 54.5821 68.6654 60.9584 75.0416C67.3346 81.4179 75.9826 85 85 85C94.0174 85 102.665 81.4179 109.042 75.0416C115.418 68.6654 119 60.0174 119 51C119 41.9826 115.418 33.3346 109.042 26.9584C102.665 20.5821 94.0174 17 85 17ZM42.5765 93.5C40.3379 93.4911 38.1196 93.9241 36.0487 94.7743C33.9778 95.6245 32.0952 96.8752 30.5087 98.4546C28.9222 100.034 27.6631 101.911 26.8036 103.978C25.9441 106.045 25.5011 108.261 25.5 110.5C25.5 124.873 32.5805 135.711 43.6475 142.775C54.5445 149.719 69.2325 153 85 153C88.0345 153 91.035 152.881 93.976 152.635C93.3014 149.69 93.3479 146.626 94.1115 143.703C94.8751 140.78 96.3333 138.085 98.362 135.847L102.994 130.688C105.1 128.348 107.796 126.617 110.801 125.676C113.805 124.736 117.007 124.62 120.071 125.341L126.743 126.922C129.956 124.27 131.903 121.142 132.795 117.394L128.392 113.092C126.094 110.849 124.501 107.983 123.811 104.846C123.12 101.709 123.363 98.4389 124.508 95.438L125.239 93.5H42.5765ZM132.464 98.447L134.869 92.072C137.062 86.2835 143.896 83.4275 149.659 85.884L152.957 87.295C156.978 89.012 160.301 92.123 161.007 96.305C164.891 119.467 144.789 152.413 121.652 160.82C117.47 162.333 112.956 161.16 109.369 158.729L106.428 156.731C105.221 155.918 104.204 154.853 103.449 153.608C102.693 152.364 102.216 150.97 102.052 149.524C101.887 148.078 102.038 146.613 102.494 145.23C102.95 143.848 103.701 142.581 104.694 141.517L109.327 136.357C110.413 135.156 111.801 134.267 113.347 133.785C114.892 133.302 116.539 133.242 118.116 133.611L128.528 136.077C136.782 130.917 141.21 123.667 141.805 114.317L134.342 107.015C133.225 105.928 132.451 104.536 132.117 103.013C131.784 101.49 131.904 99.9022 132.464 98.447Z" fill="#FF801C"/>
</svg>
